{"title":"Margarita With A Straw (2015) Pre DvD Rip - XviD - [1CD]- IcTv","uid":11847727,"size":728662944,"categoryP":"video","categoryS":"movies","magnet":"?xt=urn:btih:09003d8320bb21d5d6a322eaec1a179de4f71f2d&amp;dn=+Margarita+With+A+Straw+%282015%29+Pre+DvD+Rip+-+XviD+-+%5B1CD%5D-+IcTv+&amp;tr=udp%3A%2F%2Ftracker.openbittorrent.com%3A80&amp;tr=udp%3A%2F%2Fopen.demonii.com%3A1337&amp;tr=udp%3A%2F%2Ftracker.coppersurfer.tk%3A6969&amp;tr=udp%3A%2F%2Fexodus.desync.com%3A6969","seeders":9,"leechers":0,"uploader":"makintos13","files":1,"time":1429986194,"description":"Screen:\n &lt;a href=&quot;\nhttp://imgmak.com/ki&quot; rel=&quot;nofollow&quot; target=&quot;_NEW&quot;&gt;\nhttp://imgmak.com/ki&lt;/a&gt;\n &lt;a href=&quot;\nhttp://imgmak.com/kj&quot; rel=&quot;nofollow&quot; target=&quot;_NEW&quot;&gt;\nhttp://imgmak.com/kj&lt;/a&gt;\n &lt;a href=&quot;\nhttp://imgmak.com/kw&quot; rel=&quot;nofollow&quot; target=&quot;_NEW&quot;&gt;\nhttp://imgmak.com/kw&lt;/a&gt;\n &lt;a href=&quot;\nhttp://imgmak.com/kJ&quot; rel=&quot;nofollow&quot; target=&quot;_NEW&quot;&gt;\nhttp://imgmak.com/kJ&lt;/a&gt;\n\n\nMovie Info \nBanner : Viacom 18 Motion Pictures \nYear : 2015 \nCast : Kalki Koechlin \nVideo: XVID \nAudio : MP3 \nGenre : Action / Drama \nSubtitles : None \nSource : Team IcTv \n\nFormat : AVI \nFormat/Info : Audio Video Interleave \nFile size : 695 MiB \nDuration : 1h 36mn \nOverall bit rate : 1 002 Kbps \n\nVideo \nID : 0 \nFormat : MPEG-4 Visual \nFormat profile : Advanced Simple@L5 \nFormat settings, BVOP : 2 \nFormat settings, QPel : No \nFormat settings, GMC : No warppoints \nFormat settings, Matrix : Default (H.263) \nCodec ID : XVID \nCodec ID/Hint : XviD \nDuration : 1h 36mn \nBit rate : 868 Kbps \nWidth : 640 pixels \nHeight : 272 pixels \nDisplay aspect ratio : 2.35:1 \nFrame rate : 25.000 fps \nColor space : YUV \nChroma subsampling : 4:2:0 \nBit depth : 8 bits \nScan type : Progressive \nCompression mode : Lossy \nBits/(Pixel*Frame) : 0.199 \nStream size : 602 MiB (87%) \n\nAudio \nID : 1 \nFormat : MPEG Audio \nFormat version : Version 1 \nFormat profile : Layer 3 \nMode : Joint stereo \nMode extension : MS Stereo \nCodec ID : 55 \nCodec ID/Hint : MP3 \nDuration : 1h 36mn \nBit rate mode : Constant \nBit rate : 128 Kbps \nChannel(s) : 2 channels \nSampling rate : 48.0 KHz \nCompression mode : Lossy \nStream size : 88.8 MiB (13%)","torrent":{"xt":"urn:btih:09003d8320bb21d5d6a322eaec1a179de4f71f2d","amp;dn":"+Margarita+With+A+Straw+%282015%29+Pre+DvD+Rip+-+XviD+-+%5B1CD%5D-+IcTv+","amp;tr":["udp%3A%2F%2Ftracker.openbittorrent.com%3A80","udp%3A%2F%2Fopen.demonii.com%3A1337","udp%3A%2F%2Ftracker.coppersurfer.tk%3A6969","udp%3A%2F%2Fexodus.desync.com%3A6969"],"infoHash":"09003d8320bb21d5d6a322eaec1a179de4f71f2d","infoHashBuffer":{"type":"Buffer","data":[9,0,61,131,32,187,33,213,214,163,34,234,236,26,23,157,228,247,31,45]},"announce":[],"urlList":[]}}